<svg xmlns="http://www.w3.org/2000/svg" version="1.1" xmlns:xlink="http://www.w3.org/1999/xlink" xmlns:svgjs="http://svgjs.com/svgjs" width="94" height="100"><svg width="94" height="100" viewBox="0 0 94 100" fill="none" xmlns="http://www.w3.org/2000/svg">
   <g>
      <path d="M83.184 7.16247C77.8211 2.38749 70.1303 0 60.1113 0H0.108413L33.9043 20.2539L58.3767 34.933L76.6864 45.9092C80.4271 44.385 83.3558 42.4577 85.4727 40.1272C89.3017 35.8983 91.2162 30.8278 91.2162 24.9157C91.2258 17.8568 88.5484 11.9391 83.184 7.16247ZM29.8473 44.6733L0 26.79V99.9253L30.4544 48.4967L30.5001 48.4148C30.7242 47.9835 31.6565 45.9381 29.8473 44.6733ZM52.9994 61.7544L52.9777 61.7809L52.9994 61.7544ZM53.0645 61.6652V61.6797V61.6652ZM53.0645 61.6797L53.0115 61.7544L43.0857 78.515L30.3556 100H55.4303C57.7961 100 62.5928 99.5455 69.8203 98.6364C70.9526 98.4935 72.0247 98.3329 73.0365 98.1546L73.5641 98.0582C77.1634 97.3901 79.9798 96.4906 82.0131 95.3599C86.251 93.0555 89.7991 89.6645 92.2931 85.5353C92.8045 84.6917 93.2662 83.8189 93.6759 82.9214H93.6615L63.3059 64.7225L57.0011 60.9425L56.9649 60.9208C56.6156 60.7281 54.404 59.6271 53.1102 61.6749L53.0645 61.6797Z" fill="#1B23E8"></path>
   </g>
</svg><style>@media (prefers-color-scheme: light) { :root { filter: none; } }
</style></svg>