<svg width="448" height="100" viewBox="0 0 448 100" fill="none" xmlns="http://www.w3.org/2000/svg">
<g clip-path="url(#clip0_622_1176)">
<path d="M156.179 41.5946L154.854 32.0471C154.673 30.5828 153.856 29.8506 152.401 29.8506H118.055C116.591 29.8506 115.773 30.5828 115.602 32.0471L114.273 41.5946C114.218 41.8574 114.226 42.1295 114.295 42.389C114.364 42.6485 114.494 42.888 114.672 43.0882C114.863 43.2803 115.092 43.4299 115.344 43.527C115.597 43.6242 115.867 43.6668 116.137 43.652H117.396C118.145 43.652 118.878 43.22 119.593 42.3561C120.305 41.4879 120.918 40.5438 121.423 39.5409C121.961 38.4849 122.68 37.5309 123.546 36.722C123.929 36.3225 124.386 36.0024 124.893 35.78C125.399 35.5576 125.944 35.4373 126.497 35.4261H128.489V68.9815C128.489 70.1749 127.998 71.3757 127.024 72.5911C126.05 73.8065 125.56 74.7034 125.56 75.2782V75.5418C125.56 76.4716 126.094 76.9329 127.152 76.9329H143.33C144.428 76.9329 144.988 76.4716 144.988 75.5418V75.2782C144.988 74.7034 144.494 73.8138 143.498 72.5911C142.502 71.3684 142.004 70.1749 142.004 68.9815V35.4261H143.989C144.541 35.4377 145.087 35.5582 145.593 35.7805C146.099 36.0029 146.557 36.3228 146.939 36.722C147.806 37.53 148.523 38.4842 149.059 39.5409C149.562 40.5445 150.176 41.4888 150.889 42.3561C151.6 43.22 152.332 43.652 153.086 43.652H154.345C154.615 43.6673 154.886 43.6249 155.138 43.5277C155.39 43.4305 155.619 43.2807 155.81 43.0882C155.983 42.8854 156.107 42.6446 156.171 42.3853C156.236 42.1259 156.238 41.8552 156.179 41.5946Z" fill="#2D35FC"/>
<path d="M172.855 29.2869C171.288 27.8958 169.266 27.2002 166.789 27.2002C164.312 27.2002 162.29 27.8958 160.723 29.2869C159.969 29.9262 159.368 30.7249 158.96 31.6251C158.553 32.5254 158.351 33.5048 158.369 34.4926C158.353 35.485 158.556 36.4686 158.963 37.3738C159.37 38.2791 159.97 39.0839 160.723 39.7313C162.294 41.1444 164.316 41.8522 166.789 41.8546C169.261 41.857 171.283 41.1493 172.855 39.7313C173.607 39.0839 174.208 38.2791 174.615 37.3738C175.021 36.4686 175.224 35.485 175.209 34.4926C175.226 33.5048 175.024 32.5254 174.617 31.6251C174.21 30.7249 173.608 29.9262 172.855 29.2869ZM174.945 72.5839C173.927 71.3636 173.419 70.1604 173.419 68.9742V46.3026C173.437 45.9753 173.365 45.6493 173.211 45.3601C173.056 45.0709 172.826 44.8296 172.544 44.6625C171.948 44.311 171.163 44.355 170.19 44.7943L158.841 50.3661C157.726 50.8835 157.168 51.429 157.168 52.0025V52.2697C157.168 52.7566 157.622 53.584 158.53 54.7591C159.369 55.7547 159.848 57.0048 159.888 58.3065V68.9816C159.842 70.3008 159.365 71.5686 158.53 72.5912C157.622 73.8102 157.168 74.7035 157.168 75.2782V75.5418C157.168 76.4717 157.721 76.9329 158.826 76.9329H174.813C175.912 76.9329 176.472 76.4717 176.472 75.5418V75.2782C176.472 74.7035 175.963 73.8102 174.945 72.5912V72.5839Z" fill="#2D35FC"/>
<path d="M208.925 64.6031C208.622 64.5135 208.3 64.5162 207.998 64.6107C207.697 64.7053 207.431 64.8874 207.234 65.1339C205.335 67.3012 203.037 68.3848 200.34 68.3848C198.864 68.421 197.403 68.088 196.089 67.4161C194.774 66.7442 193.648 65.7546 192.813 64.5372C190.932 61.9746 189.992 58.5712 189.995 54.3271C189.943 52.7889 190.274 51.2619 190.957 49.8828C191.599 48.6894 192.428 48.0707 193.443 48.0267C193.832 48.0145 194.217 48.0991 194.565 48.2729C194.912 48.4468 195.211 48.7044 195.435 49.0225C196.065 49.8295 196.578 50.7219 196.958 51.673C197.399 52.7346 197.896 53.7841 198.448 54.8213C199.03 55.8938 199.832 56.8318 200.801 57.5743C201.834 58.3753 203.088 58.8392 204.393 58.9032C206.252 58.991 207.623 58.6249 208.504 57.8049C208.934 57.4169 209.275 56.9407 209.505 56.4087C209.734 55.8768 209.846 55.3016 209.833 54.7225C209.833 51.5497 208.451 49.0298 205.689 47.1628C202.926 45.2957 199.488 44.3903 195.376 44.4464C190.69 44.4904 186.712 46.0047 183.442 48.9896C180.171 51.9744 178.536 55.9855 178.536 61.0228C178.536 65.4402 180.123 69.3073 183.295 72.6241C186.468 75.9408 190.646 77.6028 195.83 77.6101C200.34 77.6101 203.811 76.4826 206.242 74.2275C207.407 73.2012 208.338 71.9352 208.97 70.5162C209.602 69.0972 209.92 67.5585 209.902 66.0052C209.89 65.2486 209.564 64.7813 208.925 64.6031Z" fill="#2D35FC"/>
<path d="M251.296 72.6936C250.075 71.7638 249.379 71.167 249.205 70.9035L241.367 59.4303C243.384 58.3147 245.146 56.7911 246.54 54.9568C247.773 53.2484 248.39 51.6022 248.393 50.0183C248.425 49.291 248.311 48.5647 248.06 47.8815C247.809 47.1984 247.424 46.572 246.928 46.0389C245.952 45.0212 244.516 44.5123 242.619 44.5123C241.026 44.5123 239.755 44.9321 238.809 45.7717C237.853 46.6178 237.123 47.6885 236.685 48.8871C236.22 50.1244 235.733 51.3764 235.221 52.6321C234.687 53.9317 233.858 55.0895 232.801 56.0147C231.695 57.0105 230.214 57.6206 228.357 57.8452V28.5327C228.371 28.2105 228.294 27.8908 228.137 27.6095C227.979 27.3282 227.746 27.0964 227.464 26.9402C226.866 26.5888 226.081 26.6107 225.11 27.0061L213.135 32.5816C212.029 33.1112 211.477 33.6628 211.477 34.2363V34.5035C211.477 34.9917 212.04 35.8202 213.168 36.9893C214.295 38.1607 214.859 39.3469 214.859 40.5366V68.9852C214.813 70.3044 214.336 71.5722 213.501 72.5948C212.593 73.8138 212.143 74.7071 212.143 75.2818V75.5454C212.143 76.4753 212.692 76.9366 213.798 76.9366H229.777C230.875 76.9366 231.436 76.4753 231.436 75.5454V75.2818C231.436 74.7071 230.927 73.8175 229.909 72.5948C228.891 71.3721 228.382 70.1786 228.382 68.9852V63.0765C229.249 63.0814 230.115 63.0153 230.971 62.8789L235.942 70.9035C236.342 71.5209 236.211 72.2531 235.547 73.1C234.883 73.9469 234.551 74.6546 234.551 75.2233V75.4869C234.551 76.4606 235.104 76.9512 236.209 76.9512H251.46C252.559 76.9512 253.115 76.4899 253.115 75.5601V75.2965C253.115 74.4911 252.509 73.6235 251.296 72.6936Z" fill="#2D35FC"/>
<path d="M281.428 65.7307C281.139 65.6192 280.822 65.6042 280.524 65.688C280.225 65.7718 279.962 65.9499 279.774 66.1956C278.358 67.6087 276.214 68.3153 273.341 68.3153C270.244 68.3153 267.812 66.9229 266.045 64.1382C267.8 64.1365 269.553 64.0031 271.288 63.7392C274.421 63.2999 276.973 62.1846 278.943 60.3932C280.912 58.6018 281.896 56.5566 281.893 54.2576C281.893 51.3435 280.656 48.9676 278.181 47.1299C275.706 45.2921 272.412 44.3977 268.297 44.4465C263.943 44.4073 259.744 46.0582 256.582 49.0518C253.331 52.083 251.707 56.0075 251.709 60.8251C251.709 65.8186 253.296 69.8626 256.469 72.9572C259.641 76.0519 263.696 77.6029 268.634 77.6102C273.095 77.6102 276.498 76.4497 278.844 74.1287C281.189 71.8077 282.361 69.4977 282.358 67.1987C282.369 66.4372 282.051 65.9504 281.428 65.7307ZM264.391 60.492C263.84 58.5741 263.572 56.586 263.596 54.5907C263.596 52.6919 263.894 51.1678 264.49 50.0183C265.086 48.8688 265.87 48.2904 266.843 48.2904C267.681 48.2904 268.398 48.7553 268.996 49.6852C269.623 50.7234 269.935 51.9215 269.893 53.1337C269.893 57.5536 268.435 59.9844 265.518 60.4261C265.145 60.4839 264.768 60.5059 264.391 60.492Z" fill="#2D35FC"/>
<path d="M313.355 46.4014C312.227 45.0982 310.714 44.4465 308.815 44.4465C304.042 44.4465 300.925 46.6784 299.465 51.1422V46.3026C299.465 45.5045 299.275 44.9554 298.902 44.6442C298.528 44.333 297.873 44.3587 296.947 44.7101L286.396 49.6852C285.291 50.2587 284.738 50.9433 284.738 51.739V52.0025C284.761 52.3096 284.849 52.6081 284.998 52.8778C285.146 53.1475 285.351 53.3822 285.598 53.5657C286.201 54.1007 286.767 54.6755 287.293 55.2863C287.848 55.943 288.141 56.781 288.117 57.6403V68.9889C288.072 70.3085 287.595 71.5767 286.759 72.5985C285.854 73.8176 285.4 74.7108 285.4 75.2856V75.5492C285.4 76.479 285.953 76.9403 287.059 76.9403H302.907C304.005 76.9403 304.561 76.479 304.561 75.5492V75.2856C304.561 74.756 304.253 74.1812 303.635 73.5613C303.018 72.9414 302.397 72.2544 301.772 71.5003C301.171 70.7984 300.842 69.9052 300.842 68.9816V55.916C300.842 53.1777 301.373 51.8073 302.434 51.8048C302.755 51.802 303.069 51.8997 303.332 52.0842C303.594 52.2687 303.793 52.5307 303.899 52.8336C304.217 53.5618 304.428 54.3325 304.525 55.1216C304.669 56.0226 305.143 56.8379 305.854 57.4096C306.627 58.0954 307.787 58.4383 309.331 58.4383C313.136 58.4383 315.037 56.0942 315.035 51.4058C315.042 49.3777 314.482 47.7096 313.355 46.4014Z" fill="#2D35FC"/>
<path d="M368.154 55.6853C365.989 53.54 363.051 52.1806 359.339 51.6071C361.498 51.0752 363.408 49.816 364.748 48.0413C366.088 46.2665 366.777 44.0843 366.697 41.8619C366.697 38.3255 365.261 35.4407 362.388 33.2076C359.515 30.9745 355.162 29.8591 349.326 29.8616H330.03C328.931 29.8616 328.375 30.3228 328.375 31.249V31.5163C328.375 32.091 328.825 32.9806 329.733 34.2034C330.568 35.226 331.045 36.4937 331.091 37.813V68.9815C331.045 70.3007 330.568 71.5685 329.733 72.5911C328.825 73.8102 328.375 74.7034 328.375 75.2782V75.5418C328.375 76.4716 328.924 76.9329 330.03 76.9329H347.997C356.051 76.9329 361.965 75.7394 365.738 73.3526C369.511 70.9657 371.4 67.7173 371.405 63.6074C371.437 62.1343 371.165 60.6704 370.606 59.3072C370.046 57.9441 369.212 56.711 368.154 55.6853ZM344.552 38.7465C344.552 36.2669 345.701 35.0283 347.997 35.0307H348.861C349.756 35.0097 350.643 35.2106 351.441 35.6156C352.24 36.0206 352.925 36.6171 353.437 37.3517C354.587 38.899 355.162 41.0431 355.162 43.7838C355.162 45.5532 354.751 46.9566 353.931 47.9938C353.56 48.4915 353.075 48.8928 352.516 49.1642C351.957 49.4355 351.342 49.569 350.721 49.5533H348.462C347.418 49.604 346.396 49.247 345.61 48.5576C345.252 48.2043 344.973 47.7794 344.791 47.3106C344.608 46.8419 344.527 46.3399 344.552 45.8376V38.7465ZM355.758 70.0065C355.381 70.5533 354.875 70.9992 354.285 71.3055C353.696 71.6118 353.04 71.7692 352.376 71.7638H350.124C349.356 71.7934 348.592 71.6476 347.889 71.3374C347.186 71.0272 346.563 70.5608 346.068 69.9736C345.026 68.707 344.484 67.1025 344.545 65.4634V54.6566H345.936C349.353 54.6566 352.061 55.828 354.06 58.171C356.058 60.5139 357.064 62.9899 357.076 65.5989C357.136 67.1734 356.673 68.7235 355.758 70.0065Z" fill="#2D35FC"/>
<path d="M403.496 65.7307C403.207 65.6186 402.89 65.6033 402.591 65.6872C402.293 65.771 402.03 65.9494 401.841 66.1956C400.426 67.6087 398.281 68.3153 395.406 68.3153C392.311 68.3153 389.88 66.9229 388.113 64.1382C389.867 64.1366 391.618 64.0032 393.352 63.7392C396.488 63.2999 399.041 62.1846 401.01 60.3932C402.98 58.6018 403.964 56.5566 403.961 54.2576C403.961 51.3435 402.724 48.9676 400.249 47.1299C397.774 45.2921 394.48 44.3977 390.365 44.4465C386.011 44.4106 381.812 46.0625 378.65 49.0555C375.404 52.0867 373.78 56.0111 373.777 60.8288C373.777 65.8222 375.364 69.8663 378.536 72.9609C381.709 76.0555 385.764 77.6053 390.702 77.6102C395.163 77.6102 398.566 76.4497 400.912 74.1287C403.257 71.8077 404.429 69.4977 404.426 67.1987C404.462 66.8846 404.389 66.5676 404.22 66.3006C404.051 66.0335 403.796 65.8324 403.496 65.7307ZM386.459 60.492C385.905 58.5747 385.636 56.5863 385.661 54.5907C385.661 52.6919 385.959 51.1678 386.557 50.0183C387.154 48.8688 387.938 48.2904 388.908 48.2904C389.75 48.2904 390.468 48.7553 391.064 49.6852C391.691 50.7234 392.003 51.9215 391.961 53.1337C391.961 57.5536 390.496 59.9844 387.568 60.4261C387.201 60.483 386.83 60.5051 386.459 60.492Z" fill="#2D35FC"/>
<path d="M424.517 72.5911C423.499 71.3708 422.99 70.1676 422.99 68.9815V28.5327C423.01 28.2002 422.936 27.8688 422.778 27.5759C422.619 27.2829 422.382 27.0399 422.093 26.8743C421.495 26.5229 420.712 26.5668 419.743 27.0061L408.394 32.5779C407.294 33.1075 406.742 33.6591 406.74 34.2326V34.4999C406.74 34.9868 407.19 35.8141 408.098 36.9856C408.937 37.9817 409.415 39.2315 409.456 40.533V68.9815C409.41 70.3007 408.933 71.5685 408.098 72.5911C407.19 73.8102 406.74 74.7034 406.74 75.2782V75.5418C406.74 76.4716 407.293 76.9329 408.394 76.9329H424.378C425.476 76.9329 426.032 76.4716 426.032 75.5418V75.2782C426.04 74.7034 425.531 73.8102 424.517 72.5911Z" fill="#2D35FC"/>
<path d="M445.797 72.5911C444.779 71.3708 444.272 70.1676 444.274 68.9815V28.5327C444.294 28.2002 444.22 27.8688 444.062 27.5759C443.903 27.2829 443.666 27.0399 443.377 26.8743C442.782 26.5229 441.997 26.5668 441.023 27.0061L429.675 32.5779C428.564 33.1075 428.01 33.6591 428.013 34.2326V34.4999C428.013 34.988 428.467 35.8166 429.375 36.9856C430.213 37.9817 430.692 39.2315 430.733 40.533V68.9815C430.686 70.3007 430.209 71.5685 429.375 72.5911C428.467 73.8102 428.013 74.7034 428.013 75.2782V75.5418C428.013 76.4716 428.566 76.9329 429.675 76.9329H445.651C446.749 76.9329 447.309 76.4716 447.309 75.5418V75.2782C447.324 74.7034 446.815 73.8102 445.797 72.5911Z" fill="#2D35FC"/>
<path d="M83.1784 7.16796C77.8164 2.38932 70.1262 0 60.1076 0H0.11715L33.9032 20.2592L58.3724 34.9246L76.6767 45.9072C80.4181 44.3842 83.3468 42.4538 85.4627 40.1157C89.3018 35.8886 91.2225 30.8147 91.2249 24.8938C91.2249 17.8552 88.5427 11.9466 83.1784 7.16796ZM29.847 44.6625L0.00732422 26.7938V99.9414L30.451 48.499L30.4986 48.4185C30.7219 47.9865 31.6554 45.9401 29.847 44.6625ZM52.9946 61.7404L52.9726 61.7697L52.9946 61.7404ZM53.0605 61.6525L53.0056 61.7257L43.081 78.4851L30.3522 100H55.4254C57.7903 100 62.5873 99.5448 69.8162 98.6345C70.9462 98.4929 72.0176 98.3343 73.0305 98.1586L73.5576 98.0597C77.155 97.3935 79.9715 96.4941 82.0069 95.3617C86.2446 93.0582 89.7927 89.6681 92.2866 85.5396C92.7968 84.6958 93.2576 83.823 93.6667 82.9258L63.3036 64.7276L56.9996 60.9496L56.963 60.9277C56.6152 60.7336 54.4004 59.6354 53.1044 61.6818L53.0605 61.6525Z" fill="#2D35FC"/>
</g>
<defs>
<clipPath id="clip0_622_1176">
<rect width="447.331" height="100" fill="white"/>
</clipPath>
</defs>
</svg>
